<?xml version="1.0" standalone="no"?>
<!DOCTYPE svg PUBLIC "-//W3C//DTD SVG 20010904//EN"
 "http://www.w3.org/TR/2001/REC-SVG-20010904/DTD/svg10.dtd">
<svg version="1.0" xmlns="http://www.w3.org/2000/svg"
 width="200.000000pt" height="200.000000pt" viewBox="0 0 200.000000 200.000000"
 preserveAspectRatio="xMidYMid meet">

<g transform="translate(0.000000,200.000000) scale(0.100000,-0.100000)"
fill="#EB4932" stroke="none">
<path d="M1007 1845 c11 -116 -58 -220 -278 -420 -235 -214 -351 -366 -410
-538 -101 -294 12 -575 284 -707 97 -47 126 -52 75 -12 -109 82 -152 204 -119
330 14 52 82 153 129 192 20 16 39 30 43 30 3 0 4 -22 1 -48 -3 -41 0 -52 22
-79 74 -88 206 -49 206 62 0 44 -9 61 -87 164 -73 96 -79 180 -20 268 40 58
52 62 53 19 1 -57 47 -110 158 -183 213 -139 237 -156 294 -218 67 -71 98
-127 112 -207 23 -124 -38 -251 -160 -331 -52 -34 -27 -29 66 13 179 81 322
231 370 389 21 69 18 206 -6 283 -37 120 -136 244 -263 328 -32 22 -62 40 -66
40 -4 0 -15 -16 -24 -35 -32 -67 -124 -96 -187 -58 -72 42 -90 142 -49 274 17
53 23 98 23 159 0 75 -3 93 -32 153 -18 37 -57 93 -86 124 l-54 58 5 -50z"/>
</g>
</svg>
