<?xml version="1.0" encoding="iso-8859-1"?>
<!-- Generator: Adobe Illustrator 19.0.0, SVG Export Plug-In . SVG Version: 6.00 Build 0)  -->
<svg version="1.1" id="Capa_1" xmlns="http://www.w3.org/2000/svg" xmlns:xlink="http://www.w3.org/1999/xlink" x="0px" y="0px"
	 viewBox="0 0 512 512" style="enable-background:new 0 0 512 512;" xml:space="preserve">
<path style="fill:#D99E82;" d="M296.52,384.263c-5.618,19.144-34.987,27.363-65.607,18.361c-30.621-8.988-50.887-31.772-45.27-50.93
	c5.618-19.144,35.001-27.363,65.607-18.347C281.884,342.321,302.138,365.106,296.52,384.263 M256,36.573
	c-141.384,0-256,98.247-256,219.434c0,15.161,1.806,29.966,5.219,44.259c25.301,43.52,42.809,16.043,122.781-23.95
	c81.45-40.732,0,56.889-28.444,113.778c-8.747,17.508-3.997,32.313,7.964,44.43c41.899,25.656,93.07,40.904,148.48,40.904
	c141.397,0,256-98.233,256-219.421S397.398,36.573,256,36.573"/>
<path style="fill:#5C913B;" d="M184.895,148.319c0,23.566-19.101,42.667-42.667,42.667s-42.667-19.101-42.667-42.667
	s19.101-42.667,42.667-42.667S184.895,124.753,184.895,148.319"/>
<path style="fill:#226699;" d="M327.117,119.874c0,23.566-19.114,42.667-42.667,42.667c-23.566,0-42.667-19.101-42.667-42.667
	s19.101-42.667,42.667-42.667C308.003,77.208,327.117,96.308,327.117,119.874"/>
<path style="fill:#DD2E44;" d="M455.117,205.208c0,23.566-19.114,42.667-42.667,42.667s-42.667-19.101-42.667-42.667
	s19.114-42.667,42.667-42.667S455.117,181.642,455.117,205.208"/>
<path style="fill:#FFCC4D;" d="M440.895,333.208c0,23.552-19.114,42.667-42.667,42.667c-23.552,0-42.667-19.114-42.667-42.667
	c0-23.552,19.114-42.667,42.667-42.667S440.895,309.656,440.895,333.208"/>
<g>
</g>
<g>
</g>
<g>
</g>
<g>
</g>
<g>
</g>
<g>
</g>
<g>
</g>
<g>
</g>
<g>
</g>
<g>
</g>
<g>
</g>
<g>
</g>
<g>
</g>
<g>
</g>
<g>
</g>
</svg>
