<?xml version="1.0" encoding="iso-8859-1"?>
<!-- Generator: Adobe Illustrator 19.0.0, SVG Export Plug-In . SVG Version: 6.00 Build 0)  -->
<svg version="1.1" id="Capa_1" xmlns="http://www.w3.org/2000/svg" xmlns:xlink="http://www.w3.org/1999/xlink" x="0px" y="0px"
	 viewBox="0 0 512 512" style="enable-background:new 0 0 512 512;" xml:space="preserve">
<path style="fill:#553788;" d="M204.8,446.171c0,32.314-11.572,58.514-43.886,58.514h-102.4c-58.514,0-58.514-204.8,0-204.8h102.4
	c32.314,0,43.886,26.2,43.886,58.514L204.8,446.171L204.8,446.171z"/>
<path style="fill:#9266CC;" d="M482.743,475.429h-14.629V329.143h14.629c8.09,0,14.629-6.539,14.629-14.629
	c0-8.09-6.539-14.629-14.629-14.629H131.657c-58.514,0-58.514,204.8,0,204.8h351.086c8.09,0,14.629-6.539,14.629-14.629
	C497.371,481.967,490.833,475.429,482.743,475.429"/>
<path style="fill:#CCD6DD;" d="M485.258,475.429H146.285c-29.257,0-29.257-146.286,0-146.286h338.973
	C501.407,329.143,501.407,475.429,485.258,475.429"/>
<path style="fill:#99AAB5;" d="M153.6,358.4h341.577c-1.975-17.189-5.281-29.257-9.918-29.257H146.286
	c-24.152,0-28.35,99.592-12.625,134.392C127.927,420.264,134.568,358.4,153.6,358.4"/>
<path style="fill:#226699;" d="M160.914,109.714c0,32.314-26.2,58.514-58.514,58.514H43.886c-58.514,0-58.514-160.914,0-160.914
	H102.4c32.314,0,58.514,26.2,58.514,58.514V109.714z"/>
<path style="fill:#55ACEE;" d="M438.857,138.971h-14.629v-102.4h14.629c8.09,0,14.629-6.539,14.629-14.629
	s-6.539-14.629-14.629-14.629H87.771c-58.514,0-58.514,160.914,0,160.914h351.086c8.09,0,14.629-6.539,14.629-14.629
	S446.947,138.971,438.857,138.971"/>
<path style="fill:#CCD6DD;" d="M441.372,138.971H102.399c-29.257,0-29.257-102.4,0-102.4h338.973
	C457.521,36.571,457.521,138.971,441.372,138.971"/>
<path style="fill:#99AAB5;" d="M102.4,65.829h349.989c-1.667-16.472-5.324-29.257-11.016-29.257H102.4
	c-17.452,0-24.415,36.41-21.036,65.829C83.646,82.534,90.595,65.829,102.4,65.829"/>
<path style="fill:#F4900C;" d="M277.943,241.371c0,32.314-26.2,58.514-58.514,58.514H73.143c-58.514,0-58.514-131.657,0-131.657
	h146.286c32.314,0,58.514,26.2,58.514,58.514V241.371z"/>
<path style="fill:#FFAC33;" d="M497.371,270.629h-14.629v-73.143h14.629c8.09,0,14.629-6.539,14.629-14.629
	s-6.539-14.629-14.629-14.629H204.8c-58.514,0-58.514,131.657,0,131.657h292.571c8.09,0,14.629-6.539,14.629-14.629
	C512,277.167,505.461,270.629,497.371,270.629"/>
<path style="fill:#CCD6DD;" d="M499.886,270.629H219.427c-29.257,0-29.257-73.143,0-73.143h280.459
	C516.036,197.486,516.036,270.629,499.886,270.629"/>
<path style="fill:#99AAB5;" d="M219.429,226.743h292.337c-0.936-15.535-4.885-29.257-11.878-29.257H219.429
	c-18.636,0-25.352,29.652-20.232,51.2C202.094,236.413,208.808,226.743,219.429,226.743"/>
<g>
</g>
<g>
</g>
<g>
</g>
<g>
</g>
<g>
</g>
<g>
</g>
<g>
</g>
<g>
</g>
<g>
</g>
<g>
</g>
<g>
</g>
<g>
</g>
<g>
</g>
<g>
</g>
<g>
</g>
</svg>
