<?xml version="1.0" encoding="iso-8859-1"?>
<!-- Generator: Adobe Illustrator 19.0.0, SVG Export Plug-In . SVG Version: 6.00 Build 0)  -->
<svg version="1.1" id="Capa_1" xmlns="http://www.w3.org/2000/svg" xmlns:xlink="http://www.w3.org/1999/xlink" x="0px" y="0px"
	 viewBox="0 0 512 512" style="enable-background:new 0 0 512 512;" xml:space="preserve">
<g transform="matrix(1.25 0 0 -1.25 0 45)">
	<g>
		<g>
			<path style="fill:#3B88C3;" d="M0-9.511C0,15.622,20.378,36,45.511,36h318.578C389.222,36,409.6,15.622,409.6-9.511v-318.578
				c0-25.134-20.378-45.511-45.511-45.511H45.511C20.378-373.6,0-353.222,0-328.089V-9.511z"/>
			<path style="fill:#FFFFFF;" d="M179.405-132.391c0,16.93,10.593,28.217,25.395,28.217c14.825,0,25.395-11.287,25.395-28.217
				v-135.464c0-16.93-10.57-28.217-25.395-28.217c-14.802,0-25.395,11.287-25.395,28.217V-132.391z M233.381-55.841
				c0-15.872-12.698-29.275-28.581-29.275c-15.167,0-28.57,13.756-28.57,29.275c0,14.461,13.403,27.876,28.57,27.876
				C219.978-27.966,233.381-41.016,233.381-55.841"/>
		</g>
	</g>
</g>
<g>
</g>
<g>
</g>
<g>
</g>
<g>
</g>
<g>
</g>
<g>
</g>
<g>
</g>
<g>
</g>
<g>
</g>
<g>
</g>
<g>
</g>
<g>
</g>
<g>
</g>
<g>
</g>
<g>
</g>
</svg>
