<?xml version="1.0" encoding="iso-8859-1"?>
<!-- Generator: Adobe Illustrator 19.0.0, SVG Export Plug-In . SVG Version: 6.00 Build 0)  -->
<svg version="1.1" id="Capa_1" xmlns="http://www.w3.org/2000/svg" xmlns:xlink="http://www.w3.org/1999/xlink" x="0px" y="0px"
	 viewBox="0 0 512 512" style="enable-background:new 0 0 512 512;" xml:space="preserve">
<g transform="matrix(1.25 0 0 -1.25 0 45)">
	<g>
		<path style="fill:#CCD6DD;" d="M56.889,1.867c-12.561,0-22.756-10.234-22.756-22.853v-194.23c0-12.618,10.195-22.52,22.756-22.52
			h295.822c12.572,0,22.756,9.902,22.756,22.52v194.23c0,12.618-10.183,22.853-22.756,22.853L56.889,1.867L56.889,1.867z"/>
		<path style="fill:#CCD6DD;" d="M364.089-237.736H45.511c-12.561,0-18.967-11.587-22.756-23.022L0-316.536
			c0-12.618,10.195-22.93,22.756-22.93h364.089c12.572,0,22.756,10.231,22.756,22.848l-22.756,55.859
			C382.1-249.802,376.661-237.736,364.089-237.736z"/>
	</g>
	<path style="fill:#9AAAB4;" d="M0.024-317.38c0.002,0,0.001-0.165,0.003-0.201l2.136-8.714
		c3.638-7.758,11.487-13.171,20.593-13.171h364.089c12.254,0,22.233,10.039,22.731,22.086H0.024z"/>
	<g>
		<path style="fill:#5DADEC;" d="M68.267-214.98h273.067c6.292,0,11.378,4.876,11.378,11.19v171.384
			c0,6.303-5.086,11.517-11.378,11.517H68.267c-6.28,0-11.378-5.215-11.378-11.517V-203.79
			C56.889-210.105,61.986-214.98,68.267-214.98z"/>
		<path style="fill:#AEBBC1;" d="M365.754-258.143c-2.719,5.234-7.225,9.699-13.505,9.699H58.144
			c-6.28,0-10.309-4.806-13.153-11.951l-7.828-22.65c-2.481-6.781,5.097-11.579,11.378-11.579h86.221c0,0,10.661,0.609,12.55,6.991
			c2.184,7.373,4.722,18.481,5.268,20.427c0.842,3.003,4.415,6.045,9.74,6.045h97.587c5.689,0,8.499-2.845,9.228-6.407
			c0.478-2.321,3.561-13.039,4.984-20.333c1.263-6.485,13.881-6.725,13.881-6.725h75.025c6.292,0,13.869,5.515,11.378,11.579
			L365.754-258.143z"/>
		<path style="fill:#9AAAB4;" d="M254.578-306.672c4.084,0,6.223,3.235,5.996,6.659c-0.216,3.413-2.97,18.276-3.653,21.986
			c-0.683,3.72-2.879,5.488-6.258,5.488h-79.815c-2.833,0-5.689-2.22-5.962-4.166c-0.262-1.946-3.743-18.545-4.358-22.31
			c-0.603-3.777,1.252-7.657,5.518-7.657H254.578L254.578-306.672z"/>
	</g>
</g>
<g>
</g>
<g>
</g>
<g>
</g>
<g>
</g>
<g>
</g>
<g>
</g>
<g>
</g>
<g>
</g>
<g>
</g>
<g>
</g>
<g>
</g>
<g>
</g>
<g>
</g>
<g>
</g>
<g>
</g>
</svg>
