<?xml version="1.0" encoding="iso-8859-1"?>
<!-- Generator: Adobe Illustrator 19.0.0, SVG Export Plug-In . SVG Version: 6.00 Build 0)  -->
<svg version="1.1" id="Capa_1" xmlns="http://www.w3.org/2000/svg" xmlns:xlink="http://www.w3.org/1999/xlink" x="0px" y="0px"
	 viewBox="0 0 511.997 511.997" style="enable-background:new 0 0 511.997 511.997;" xml:space="preserve">
<path style="fill:#D99E82;" d="M504.776,481.313c-9.346-30.35-24.629-87.523-33.585-109.293
	c-7.237-17.566-13.997-35.218-22.303-43.537c-8.306-8.306-22.434-7.656-30.956,0.823c0,0-35.651,24.196-48.435,40.215
	c-16.019,12.74-40.23,48.492-40.23,48.492c-8.523,8.523-9.173,22.65-0.867,30.956c8.321,8.306,25.973,15.067,43.552,22.303
	c21.755,8.956,78.943,24.196,109.293,33.585C486.431,506.448,506.365,486.499,504.776,481.313"/>
<path style="fill:#EA596E;" d="M193.056,72.663c16.627,16.627,16.627,43.567,0,60.193l-60.193,60.193
	c-16.627,16.627-43.581,16.627-60.193,0l-60.193-60.193c-16.627-16.627-16.627-43.567,0-60.193L72.67,12.47
	c16.612-16.627,43.567-16.627,60.193,0L193.056,72.663z"/>
<path style="fill:#FFCC4D;" d="M448.882,328.481c0,0-15.11,15.124-60.237,60.237c-45.098,45.126-60.136,60.164-60.136,60.164
	l-225.75-225.722L223.16,102.76L448.882,328.481z"/>
<path style="fill:#292F33;" d="M459.365,498.139c0,0,39.132,21.509,49.706,10.935c10.589-10.589-11.036-49.619-11.036-49.619
	S460.94,460.148,459.365,498.139"/>
<path style="fill:#CCD6DD;" d="M147.917,27.515L27.531,147.901l75.231,75.245l120.4-120.386L147.917,27.515z"/>
<g>
	<path style="fill:#99AAB5;" d="M178.013,57.612L57.612,177.998l-15.038-15.052L162.962,42.56L178.013,57.612z"/>
	<path style="fill:#99AAB5;" d="M208.103,87.708L87.716,208.109l-15.052-15.052L193.052,72.656L208.103,87.708z"/>
</g>
<g>
</g>
<g>
</g>
<g>
</g>
<g>
</g>
<g>
</g>
<g>
</g>
<g>
</g>
<g>
</g>
<g>
</g>
<g>
</g>
<g>
</g>
<g>
</g>
<g>
</g>
<g>
</g>
<g>
</g>
</svg>
